<?xml version="1.0" encoding="utf-8"?>
<!-- Generator: Adobe Illustrator 21.0.2, SVG Export Plug-In . SVG Version: 6.00 Build 0)  -->
<svg version="1.1" id="Layer_1" xmlns="http://www.w3.org/2000/svg" xmlns:xlink="http://www.w3.org/1999/xlink" x="0px" y="0px"
	 viewBox="0 0 200 200" style="enable-background:new 0 0 200 200;" xml:space="preserve">
<style type="text/css">
	.st0{fill:url(#SVGID_1_);}
	.st1{fill:url(#SVGID_2_);}
</style>
<g>
	<linearGradient id="SVGID_1_" gradientUnits="userSpaceOnUse" x1="100" y1="7.2069" x2="100" y2="192.7931">
		<stop  offset="0" style="stop-color:#00AA78"/>
		<stop  offset="1" style="stop-color:#BF0075"/>
	</linearGradient>
	<path class="st0" d="M192.8,92.2l-4.9-4.9l-80.1,80.1l-3-3l59.5-59.5l0,0l4.9-4.9l0,0l3-3l0,0l4.9-4.9l0,0l7.8-7.8l-4.9-4.9
		l-7.8,7.8L92.2,7.2l-4.9,4.9l80.1,80.1l-3,3l-59.5-59.5l0,0l-4.9-4.9l0,0l-3-3l0,0l-2.4-2.4L84.3,15l-4.9,4.9l7.8,7.8L7.2,107.8
		l4.9,4.9l80.1-80.1l3,3L35.6,95.1h0l-4.9,4.9h0l-3,3h0l-4.9,4.9l0,0l-7.8,7.8l4.9,4.9l7.8-7.8l80.1,80.1l4.9-4.9l-80.1-80.1l3-3
		l62.4,62.4l1.9,1.9l0,0l15.7,15.7l4.9-4.9l-7.8-7.8L192.8,92.2z M100,40.5l59.5,59.5L100,159.5L40.5,100L100,40.5z"/>
	<g>
		
			<image style="overflow:visible;opacity:0.4;" width="65" height="62" xlink:href="E7EA4B86.png"  transform="matrix(1 0 0 1 71 67)">
		</image>
		<g>
			<g>
				<linearGradient id="SVGID_2_" gradientUnits="userSpaceOnUse" x1="90.3167" y1="118.0882" x2="125.8167" y2="71.5882">
					<stop  offset="0" style="stop-color:#00AA78"/>
					<stop  offset="1" style="stop-color:#BF0075"/>
				</linearGradient>
				<path class="st1" d="M83.4,110.8l0-1.6c0.3-0.1,0.8-0.2,1.6-0.4c1.2-0.2,2-0.5,2.2-0.6c0.3-0.2,0.6-0.7,1-1.4l4.8-12.6l5.7-14.9
					c0.5,0,1,0,1.5,0h1.1l0.2,0.4l4.2,9.9c0.9,2.1,1.8,4.1,2.5,6.1c0.7,2,1.4,3.6,1.9,4.8c0.3,0.8,0.8,1.9,1.3,3.4
					c0.3,0.8,0.7,1.8,1.3,3.1c0.3,0.7,0.6,1.1,0.7,1.2c0.3,0.2,0.8,0.4,1.4,0.5c0.6,0.1,1.3,0.3,2.1,0.5c0.1,0.5,0.1,0.9,0.1,1.2
					c0,0.1,0,0.3,0,0.5c-1.2,0-2.5-0.1-3.9-0.2c-1.4-0.1-2.7-0.2-3.8-0.2c-1.3,0-2.2,0-2.7,0l-4.1,0.2l-1.2,0c0-0.6,0-1.1,0.1-1.6
					l2.7-0.6c0.8-0.2,1.3-0.4,1.4-0.5c0.2-0.2,0.2-0.3,0.2-0.6c0-0.2,0-0.4-0.1-0.6l-1-2.3l-1.9-4.7l-9.1,0c-0.3,0.8-1,2.6-2.1,5.6
					c-0.3,0.8-0.5,1.4-0.5,1.7c0,0.4,0.1,0.7,0.3,0.9c0.4,0.3,1.1,0.5,2.1,0.6c0.1,0,0.7,0.1,1.7,0.3c0,0.6,0,1,0,1.2
					c0,0.2,0,0.4,0,0.6c-1,0-3.3-0.1-7.1-0.4l-1,0.2c-1.2,0.2-2.3,0.3-3.4,0.3H83.4z M94.6,97.3c3.7,0,5.9,0.1,6.6,0.1l0.6,0
					c-0.5-1.4-1.1-3.1-1.9-5c-0.8-1.9-1.4-3.3-1.9-4.3L94.6,97.3z"/>
			</g>
		</g>
	</g>
</g>
<g>
</g>
<g>
</g>
<g>
</g>
<g>
</g>
<g>
</g>
</svg>
